<svg xmlns="http://www.w3.org/2000/svg" viewBox="0 0 32 32"><rect width="32" height="32" rx="7" fill="#16161d"/><path fill="#f5f5fa" d="M7 5.5a3.2 3.2 0 0 1 3.2 3.2v8.8a5.8 5.8 0 0 0 11.6 0V8.7a3.2 3.2 0 0 1 6.4 0v8.8a11.5 11.5 0 0 1-23 0V8.7A3.2 3.2 0 0 1 7 5.5Z"/><path fill="#16161d" d="M16 9a3.4 3.4 0 0 1 2 6.2c-.8.5-1.1.8-1.1 1.5a1.1 1.1 0 0 1-2.2 0c0-1.7 1-2.4 1.7-2.9.5-.4.7-.6.7-1.1a1.4 1.4 0 0 0-2.7-.6 1.1 1.1 0 1 1-2-1A3.4 3.4 0 0 1 16 9Zm0 9.6a1.4 1.4 0 1 1 0 2.8 1.4 1.4 0 0 1 0-2.8Z"/></svg>
